<?xml version="1.0" encoding="UTF-8" standalone="no"?>
<svg
   xmlns:dc="http://purl.org/dc/elements/1.1/"
   xmlns:cc="http://creativecommons.org/ns#"
   xmlns:rdf="http://www.w3.org/1999/02/22-rdf-syntax-ns#"
   xmlns:svg="http://www.w3.org/2000/svg"
   xmlns="http://www.w3.org/2000/svg"
   xmlns:sodipodi="http://sodipodi.sourceforge.net/DTD/sodipodi-0.dtd"
   xmlns:inkscape="http://www.inkscape.org/namespaces/inkscape"
   id="svg1468"
   viewBox="0 0 187.5 187.5"
   sodipodi:version="0.32"
   version="1.0"
   y="0"
   x="0"
   sodipodi:docname="Anonymous_Mail_1_icon_red.svg"
   inkscape:version="0.92.3 (d244b95, 2018-08-02)">
  <defs
     id="defs11" />
  <sodipodi:namedview
     id="base"
     bordercolor="#666666"
     borderopacity="1.0"
     pagecolor="#ffffff"
     showgrid="false"
     inkscape:zoom="5.0346667"
     inkscape:cx="81.459256"
     inkscape:cy="113.02075"
     inkscape:window-width="2560"
     inkscape:window-height="1385"
     inkscape:window-x="1920"
     inkscape:window-y="27"
     inkscape:window-maximized="1"
     inkscape:current-layer="svg1468" />
  <g
     id="layer1">
    <g
       id="g2423"
       stroke-linejoin="round"
       stroke="#000"
       stroke-width="3.75"
       transform="matrix(.81088 0 0 .81088 5.9097 -403.36)">
      <rect
         id="rect2398"
         rx="3"
         ry="3"
         height="100"
         width="158"
         stroke-linecap="round"
         y="560.36"
         x="30"
         fill="#fff" />
      <path
         id="path2400"
         d="m32 658.36l76-56 80 58"
         fill="none" />
      <path
         id="path2402"
         d="m31.935 561.05l75.765 59.97 78.3-60.63-154.06 0.66z"
         fill="#fff"
         fill-rule="evenodd" />
    </g>
  </g>
  <metadata
     id="metadata8">
    <rdf:RDF>
      <cc:Work>
        <dc:format>image/svg+xml</dc:format>
        <dc:type
           rdf:resource="http://purl.org/dc/dcmitype/StillImage" />
        <cc:license
           rdf:resource="http://creativecommons.org/licenses/publicdomain/" />
        <dc:publisher>
          <cc:Agent
             rdf:about="http://openclipart.org/">
            <dc:title>Openclipart</dc:title>
          </cc:Agent>
        </dc:publisher>
        <dc:title></dc:title>
        <dc:date>2006-12-26T00:00:00</dc:date>
        <dc:description>clip art, clipart, </dc:description>
        <dc:source>http://openclipart.org/detail/24606/-by--24606</dc:source>
        <dc:creator>
          <cc:Agent>
            <dc:title>Anonymous</dc:title>
          </cc:Agent>
        </dc:creator>
        <dc:subject>
          <rdf:Bag>
            <rdf:li>clip art</rdf:li>
            <rdf:li>clipart</rdf:li>
          </rdf:Bag>
        </dc:subject>
      </cc:Work>
      <cc:License
         rdf:about="http://creativecommons.org/licenses/publicdomain/">
        <cc:permits
           rdf:resource="http://creativecommons.org/ns#Reproduction" />
        <cc:permits
           rdf:resource="http://creativecommons.org/ns#Distribution" />
        <cc:permits
           rdf:resource="http://creativecommons.org/ns#DerivativeWorks" />
      </cc:License>
    </rdf:RDF>
  </metadata>
  <path
     style="fill:#333333;fill-opacity:1;stroke-width:0.19862288"
     d="m 31.055208,133.10403 c -0.482469,-0.24648 -1.150538,-0.7916 -1.484598,-1.21139 l -0.607382,-0.76326 -0.05112,-39.313952 c -0.05036,-38.730776 -0.04534,-39.32529 0.338881,-40.078414 0.549903,-1.077901 1.425253,-1.741765 2.639625,-2.00189 0.766073,-0.164096 17.644256,-0.207806 63.222072,-0.163726 l 62.177004,0.06013 0.86273,0.683301 c 0.4745,0.375816 1.02755,1.046168 1.22899,1.489672 0.3519,0.774743 0.36643,2.333547 0.37062,39.744024 l 0.004,38.937655 -0.4469,0.87472 c -0.24579,0.4811 -0.79037,1.14804 -1.21017,1.4821 l -0.76326,0.60739 -62.701819,0.0509 -62.701819,0.0509 -0.877216,-0.44813 z m 122.536782,-2.61602 c -0.42307,-0.40872 -49.67727,-36.090479 -49.97731,-36.205615 -0.13903,-0.05335 -2.39604,1.564853 -5.015578,3.59601 -3.743055,2.902315 -4.889689,3.693005 -5.355445,3.693005 -0.468667,0 -1.538926,-0.74937 -5.11598,-3.582118 -2.487831,-1.970168 -4.638964,-3.556668 -4.780296,-3.525556 -0.347505,0.0765 -49.098358,35.967764 -49.110808,36.156274 -0.0054,0.0819 26.912784,0.14897 59.818212,0.14897 51.579875,0 59.787955,-0.0387 59.537205,-0.28097 z m 3.38369,-39.332574 c 0,-20.913508 -0.0731,-38.06976 -0.16252,-38.125004 -0.18349,-0.113401 -50.88078,39.031675 -50.82206,39.241409 0.047,0.167789 50.63011,36.881489 50.83561,36.896949 0.0819,0.006 0.14897,-17.09985 0.14897,-38.013354 z M 56.542311,110.52834 c 13.39844,-9.87607 24.360801,-18.023006 24.360801,-18.104314 0,-0.08131 -10.877469,-8.759698 -24.172155,-19.285312 C 43.436273,62.6131 32.353116,53.838331 32.10172,53.639228 l -0.457083,-0.362006 v 37.762633 c 0,31.668405 0.04332,37.736995 0.268436,37.603795 0.14764,-0.0874 11.230797,-8.23925 24.629238,-18.11531 z M 124.57834,74.161456 c 15.18356,-11.743577 27.61186,-21.433147 27.61843,-21.532377 0.007,-0.107825 -7.87991,-0.128026 -19.60205,-0.05021 -10.78771,0.07162 -36.886755,0.189336 -57.997885,0.2616 -21.111129,0.07226 -38.383872,0.192096 -38.383872,0.266294 0,0.0742 12.833476,10.293723 28.518836,22.710058 l 28.518835,22.575151 1.860612,-1.439279 C 96.134581,96.161092 109.39477,85.905034 124.57834,74.161456 Z"
     id="path65"
     inkscape:connector-curvature="0" />
  <path
     style="fill:#ff0b0b;fill-opacity:0.54228854;stroke:#a50000;stroke-width:0.19862288;stroke-opacity:0.80099505"
     d="m 142.41887,52.242723 c -34.44206,0.120933 -68.884439,0.276095 -103.326139,0.419779 -0.872116,0.19093 -2.152557,-0.304029 -2.77116,0.456106 -0.04138,0.976828 1.323478,1.325614 1.88435,2.009424 17.307889,13.792364 34.6031,27.602657 52.08414,41.17522 1.078175,0.685515 2.003988,1.751961 3.243138,2.126274 2.73727,-1.791912 5.260674,-4.018918 7.914131,-5.979894 16.89667,-13.07813 33.78903,-26.161842 50.68195,-39.244829 0.66093,-1.156094 -1.2257,-0.945705 -1.92455,-0.96944 -2.59528,-0.0059 -5.19058,0.0027 -7.78586,0.0074 z"
     id="path4643"
     inkscape:connector-curvature="0" />
  <path
     style="fill:#ff0b0b;fill-opacity:0.54228857;stroke:#a50000;stroke-width:0.19862288;stroke-opacity:0.80099505"
     d="m 156.2798,52.985619 c -3.29156,2.209763 -6.32946,4.83226 -9.51963,7.203113 -13.60302,10.570184 -27.32164,20.996161 -40.80101,31.722704 -0.47029,1.021823 1.18593,1.351394 1.68645,1.989145 16.16929,11.826399 32.36249,23.621409 48.64388,35.292609 1.21736,0.22544 0.65653,-1.43987 0.80342,-2.12124 0.13675,-23.39585 0.1548,-46.79324 0.032,-70.189099 -0.16053,-1.228681 0.22457,-2.659618 -0.38506,-3.774256 -0.12394,-0.107867 -0.29883,-0.155301 -0.46009,-0.122976 z"
     id="path4645"
     inkscape:connector-curvature="0" />
  <path
     style="fill:#ff0b0b;fill-opacity:0.54228857;stroke:#a50000;stroke-width:0.19862288;stroke-opacity:0.80099505"
     d="m 103.45891,94.035771 c -3.584441,2.072699 -6.52118,5.126522 -10.09485,7.207059 -1.090495,-0.15818 -1.912159,-1.21088 -2.836444,-1.772631 -2.358186,-1.747667 -4.54788,-3.773623 -7.088881,-5.248995 -1.258967,0.274065 -2.189157,1.487536 -3.312066,2.125029 -15.219458,11.172577 -30.455341,22.327797 -45.532482,33.690707 -0.532683,1.1153 1.074657,0.88295 1.70341,0.89809 36.763407,0.20445 73.528243,0.16062 110.291963,0.0445 2.2399,-0.0319 4.48408,0.009 6.72137,-0.0911 1.06971,-0.65382 -0.57727,-1.41138 -1.06763,-1.8291 -16.0876,-11.6894 -32.18402,-23.36703 -48.34253,-34.95764 -0.14716,-0.01878 -0.28696,-0.14166 -0.44186,-0.06595 z"
     id="path4647"
     inkscape:connector-curvature="0" />
  <path
     style="fill:#ff0b0b;fill-opacity:0.54228857;stroke:#a50000;stroke-width:0.19862288;stroke-opacity:0.80099505"
     d="m 31.894157,53.501573 c -0.834398,0.622149 -0.343473,1.949209 -0.531456,2.847661 -0.180126,22.009803 -0.09265,44.021746 -0.02989,66.032166 0.160174,1.9307 -0.268046,3.96845 0.278539,5.83884 0.649244,1.03774 1.68371,-0.36429 2.332005,-0.69868 15.698309,-11.50561 31.38893,-23.02459 46.97147,-34.685674 0.506472,-0.968677 -1.014076,-1.370291 -1.500964,-1.996422 C 63.807791,78.337671 48.178524,65.861869 32.392266,53.588859 32.242369,53.464734 32.074041,53.468204 31.894157,53.501573 Z"
     id="path4649"
     inkscape:connector-curvature="0" />
</svg>
